<svg id="Capa_1" data-name="Capa 1" xmlns="http://www.w3.org/2000/svg" xmlns:xlink="http://www.w3.org/1999/xlink" viewBox="0 0 24 24"><defs><style>.cls-1{fill:none;}.cls-2{fill-rule:evenodd;}.cls-3{clip-path:url(#clip-path);}.cls-4{clip-path:url(#clip-path-2);}.cls-5{clip-path:url(#clip-path-3);}.cls-6{clip-path:url(#clip-path-4);}.cls-7{clip-path:url(#clip-path-5);}.cls-8{clip-path:url(#clip-path-6);}.cls-9{clip-path:url(#clip-path-9);}.cls-10{clip-path:url(#clip-path-10);}.cls-11{clip-path:url(#clip-path-11);}.cls-12{clip-path:url(#clip-path-12);}</style><clipPath id="clip-path"><circle class="cls-1" cx="577.49" cy="-600.51" r="4.43"/></clipPath><clipPath id="clip-path-2"><path class="cls-1" d="M577.49-594.82a5.7,5.7,0,0,1-5.69-5.69,5.69,5.69,0,0,1,5.69-5.69,5.69,5.69,0,0,1,5.69,5.69A5.69,5.69,0,0,1,577.49-594.82Zm6.9-6.33a6.92,6.92,0,0,0-6.27-6.26V-610h-1.27v2.6a6.92,6.92,0,0,0-6.27,6.26H568v1.27h2.59a6.92,6.92,0,0,0,6.27,6.26V-591h1.27v-2.59a6.92,6.92,0,0,0,6.27-6.26H587v-1.27h-2.59Z"/></clipPath><clipPath id="clip-path-3"><circle class="cls-1" cx="665.49" cy="-855.51" r="4.43"/></clipPath><clipPath id="clip-path-4"><path class="cls-1" d="M665.49-849.82a5.7,5.7,0,0,1-5.69-5.69,5.69,5.69,0,0,1,5.69-5.69,5.69,5.69,0,0,1,5.69,5.69A5.69,5.69,0,0,1,665.49-849.82Zm6.9-6.33a6.92,6.92,0,0,0-6.27-6.26V-865h-1.27v2.6a6.92,6.92,0,0,0-6.27,6.26H656v1.27h2.59a6.92,6.92,0,0,0,6.27,6.26V-846h1.27v-2.59a6.92,6.92,0,0,0,6.27-6.26H675v-1.27h-2.59Z"/></clipPath><clipPath id="clip-path-5"><circle class="cls-1" cx="666.99" cy="-856.01" r="4.2"/></clipPath><clipPath id="clip-path-6"><path class="cls-1" d="M667-850.62A5.4,5.4,0,0,1,661.6-856,5.4,5.4,0,0,1,667-861.4a5.39,5.39,0,0,1,5.39,5.39A5.39,5.39,0,0,1,667-850.62Zm6.54-6a6.55,6.55,0,0,0-5.94-5.93V-865h-1.2v2.46a6.55,6.55,0,0,0-5.94,5.93H658v1.2h2.45a6.56,6.56,0,0,0,5.94,5.93V-847h1.2v-2.46a6.56,6.56,0,0,0,5.94-5.93H676v-1.2h-2.45Z"/></clipPath><clipPath id="clip-path-9"><circle class="cls-1" cx="281.99" cy="-712.01" r="4.2"/></clipPath><clipPath id="clip-path-10"><path class="cls-1" d="M282-706.62A5.4,5.4,0,0,1,276.6-712,5.4,5.4,0,0,1,282-717.4a5.39,5.39,0,0,1,5.39,5.39A5.39,5.39,0,0,1,282-706.62Zm6.54-6a6.55,6.55,0,0,0-5.94-5.93V-721h-1.2v2.46a6.55,6.55,0,0,0-5.94,5.93H273v1.2h2.45a6.56,6.56,0,0,0,5.94,5.93V-703h1.2v-2.46a6.56,6.56,0,0,0,5.94-5.93H291v-1.2h-2.45Z"/></clipPath><clipPath id="clip-path-11"><circle class="cls-1" cx="512.99" cy="-707.01" r="4.2"/></clipPath><clipPath id="clip-path-12"><path class="cls-1" d="M513-701.62A5.4,5.4,0,0,1,507.6-707,5.4,5.4,0,0,1,513-712.4a5.39,5.39,0,0,1,5.39,5.39A5.39,5.39,0,0,1,513-701.62Zm6.54-6a6.55,6.55,0,0,0-5.94-5.93V-716h-1.2v2.46a6.55,6.55,0,0,0-5.94,5.93H504v1.2h2.45a6.56,6.56,0,0,0,5.94,5.93V-698h1.2v-2.46a6.56,6.56,0,0,0,5.94-5.93H522v-1.2h-2.45Z"/></clipPath></defs><title>icon-chevron-down</title><polygon class="cls-2" points="12 18.18 2 8.18 4.35 5.83 12 13.46 19.65 5.83 22 8.18 12 18.18"/></svg>